<?xml version="1.0" encoding="UTF-8" standalone="no"?>
<!-- Created with Inkscape (http://www.inkscape.org/) -->

<svg
   xmlns:dc="http://purl.org/dc/elements/1.1/"
   xmlns:cc="http://creativecommons.org/ns#"
   xmlns:rdf="http://www.w3.org/1999/02/22-rdf-syntax-ns#"
   xmlns:svg="http://www.w3.org/2000/svg"
   xmlns="http://www.w3.org/2000/svg"
   version="1.1"
   width="2151"
   height="1554"
   id="svg3569">
  <metadata
     id="metadata3575">
    <rdf:RDF>
      <cc:Work
         rdf:about="">
        <dc:format>image/svg+xml</dc:format>
        <dc:type
           rdf:resource="http://purl.org/dc/dcmitype/StillImage" />
        <dc:title></dc:title>
      </cc:Work>
    </rdf:RDF>
  </metadata>
  <defs
     id="defs3573" />
  <g
     transform="translate(-1.8325442,-12.82783)"
     id="g4673"
     style="stroke:#000000;stroke-opacity:0.99322031">
    <path
       d="m 403.17945,1435.7845 c -3.52647,-0.4964 -9.15147,-1.5573 -12.5,-2.3575 -3.34852,-0.8001 -8.56323,-1.9947 -11.58823,-2.6546 -3.025,-0.6599 -5.95,-1.7194 -6.5,-2.3543 -0.55,-0.635 -5.05,-2.6702 -10,-4.5228 -14.50898,-5.4299 -26.07165,-11.6894 -32.48607,-17.5864 -27.87626,-15.7328 -47.90844,-41.1155 -58.97665,-67.5128 -37.88044,-59.333 -50.60718,-134.9715 -100.46922,-186.296 -25.87909,-25.2774 -54.07388,-73.8517 -88.184901,-79.7789 -13.700411,-1.5364 -18.064305,-3.3758 -31.383157,-13.2277 -21.307578,-15.7611 -18.767088,-51.6847 5.823771,-82.35045 14.944454,-18.6364 37.977001,-39.79 49.176227,-45.1646 2.475,-1.1878 8.99021,-5.7722 14.47824,-10.1876 10.25756,-8.2526 21.19067,-14.5094 34.76885,-19.89747 10.79482,-4.28355 23.10822,-10.58611 39.17871,-20.05345 15.57243,-9.17392 22.92625,-13.04335 24.79096,-13.0445 2.53851,-0.002 13.48185,-5.8551 23.78324,-12.72153 13.37401,-8.91452 19.8852,-12.53796 28,-15.58185 3.575,-1.341 13.25,-5.58615 21.5,-9.43368 39.25079,-18.30525 52.8891,-21.17704 74.55757,-15.69941 16.71725,4.226 20.92303,7.90218 20.95278,18.31438 0.006,1.99258 0.9057,8.7398 2,14.99381 3.15859,18.05146 2.15028,48.57507 -3.12593,94.6291 -2.92638,25.5431 -1.79583,32.1213 10.1717,59.18455 14.64844,33.1258 52.094,87.3153 60.33591,87.3153 10.39721,0 12.14849,-14.3099 11.01443,-89.99985 -0.49855,-33.275 -0.77529,-102.35003 -0.61497,-153.50003 0.16032,-51.15 -0.21537,-134.625 -0.83487,-185.5 -0.6195,-50.875 -1.29918,-111.85 -1.51041,-135.5 -0.46991,-52.61251 -2.0373,-124.10853 -3.57341,-163 -4.5392,-114.92393 1.08548,-152.08221 29.44162,-194.5 54.35764,-81.313283 124.18554,-93.704663 254.11441,-45.09413 26.22101,9.81012 61.5878,19.07802 99.07117,25.9617 28.41468,5.21824 33.85096,9.10361 36.49204,26.08124 3.0679,19.72139 -7.15295,26.95886 -40.99204,29.02678 -14.36613,0.87792 -26.67013,2.88366 -39.84462,6.49528 -31.02713,8.5057 -89.23322,1.16262 -122.65538,-15.47379 -21.94068,-10.92131 -33.43924,-9.7812 -48.76274,4.83494 -18.85007,17.97992 -28.39353,44.00114 -30.68581,83.66798 -5.80776,100.50061 -5.02785,238.43072 1.95923,346.5 1.08457,16.775 2.21298,34.55 2.50758,39.5 1.69345,28.4539 4.91494,71.10028 7.51047,99.42418 1.6342,17.83329 2.97127,34.51224 2.97127,37.06433 0,2.55208 2.02294,19.19243 4.49542,36.97855 2.47248,17.78612 6.31705,48.35717 8.54349,67.93567 2.22644,19.5785 6.0406,51.3473 8.4759,70.5973 2.43531,19.24995 6.26438,50.97485 8.50906,70.49985 5.20728,45.2949 10.3345,83.6079 12.98101,97 6.727,34.0407 5.98967,108.4775 -1.34219,135.5 -2.37959,8.7703 -8.66008,29.5247 -13.61741,45 -2.6428,8.25 -5.30384,16.8345 -5.91343,19.0768 -2.33993,8.6069 -16.46059,27.0011 -31.60575,41.1711 -4.78929,4.4809 -9.99709,10.18 -11.57288,12.6648 -2.94431,4.6427 -10.97203,9.5785 -20.45322,12.5754 -2.2,0.6955 -6.25,2.3035 -9,3.5734 -2.75,1.2699 -8.825,3.0338 -13.5,3.9198 -4.675,0.8861 -15.60298,3.1752 -24.2844,5.0871 -11.07109,2.4381 -21.37299,3.9193 -34.5,4.9604 -10.29358,0.8164 -22.7656,1.9505 -27.7156,2.5202 -12.36005,1.4226 -51.57534,2.0427 -59.41177,0.9394 z m 90.33314,-53.4527 c 20.76249,-4.7249 41.19123,-12.9403 49.42324,-19.8755 26.00066,-16.1904 44.02207,-44.293 54.65102,-69.4972 16.89013,-41.4021 15.12009,-148.062 -4.46679,-269.163 -8.299,-51.31055 -8.6574,-54.72405 -20.05451,-190.99988 -4.25608,-50.89015 -5.67774,-69.71169 -7.4401,-98.5 -0.84174,-13.75 -2.0003,-32.65 -2.57458,-42 -0.57428,-9.35 -2.17556,-27.575 -3.55839,-40.5 -1.38284,-12.925 -2.93911,-28.675 -3.45839,-35 -0.51927,-6.325 -1.39233,-16 -1.94011,-21.5 -4.95872,-49.78776 -3.77671,-256.59921 2.0404,-357 3.39563,-58.60701 12.34868,-78.47685 40.45684,-89.78737 6.95685,-2.79939 1.06062,-1.84526 -11.19192,1.81107 -42.46789,12.67303 -57.94193,34.76088 -72.84246,103.9763 -8.79141,40.83755 -9.71631,53.43385 -7.01219,95.5 5.29531,82.37574 5.85362,116.55162 6.10979,374 0.24347,244.68503 0.28201,247.00443 4.32221,260.07773 6.942,22.46295 8.76324,39.42155 7.18698,66.92215 -3.06212,53.4238 -3.47697,56.3165 -10.44643,72.8418 -5.72037,13.5635 -19.77997,33.5114 -25.49164,36.1677 -22.96727,10.6816 -34.21434,11.6221 -39.65653,3.3163 -3.40213,-5.1923 -10.95085,-12.5606 -24.47781,-23.8926 -11.91172,-9.9788 -21,-19.4949 -21,-21.9884 0,-1.8881 -5.50577,-8.5943 -8.65275,-10.5392 -4.42713,-2.7361 -10.38727,-11.2469 -19.82691,-28.3117 -10.06874,-18.2021 -11.94474,-21.1259 -17.42244,-27.1528 -10.79213,-11.8743 -19.52996,-37.5291 -22.62932,-66.44095 -2.74408,-25.5978 -6.22535,-24.8526 -64.35616,13.776 -9.56318,6.35475 -18.94393,12.08925 -20.84612,12.74315 -1.9022,0.6539 -4.42778,2.3932 -5.61242,3.865 -1.44912,1.8004 -6.40753,4.4132 -15.15388,7.9851 -7.15,2.92 -19.3,8.7684 -27,12.9965 -12.84997,7.056 -21.1278,10.297 -37.25,14.5842 -6.99527,1.8602 -3.74057,9.001 8.85162,19.4205 17.06718,14.1223 60.73477,64.9946 65.49811,76.3046 0.77015,1.8286 2.10286,4.9729 2.96158,6.9873 0.85871,2.0144 3.60646,6.2656 6.1061,9.4473 2.49964,3.1816 7.12587,11.096 10.2805,17.5875 3.15463,6.4915 8.89433,17.4277 12.75489,24.3027 9.26327,16.4963 13.17464,24.3307 15.45194,30.9498 1.03294,3.0022 5.65667,12.2293 10.27495,20.5044 9.68702,17.3575 13.41179,25.2482 16.54316,35.0458 9.71979,41.8676 33.40366,57.2872 63.02715,74.0572 29.02337,17.397 82.73973,25.0986 118.42137,16.9785 z M 107.24241,1018.4435 c 38.82736,-16.4332 75.01511,-41.69548 107.84881,-59.31515 22.39056,-11.4876 41.73108,-22.5521 46.63834,-26.6813 1.57395,-1.3244 5.30553,-3.8489 8.29239,-5.61 14.02835,-7.05845 74.54777,-58.82062 67.91573,-59.84794 -51.66346,13.87623 -115.47628,56.26848 -140.49169,70.90504 -30.82011,19.4922 -80.64311,40.91257 -100.933776,76.05475 -3.80199,7.3522 1.8478,9.7188 10.730196,4.4946 z M 738.09122,166.74971 c 0,-1.27644 -1.19748,-2.68751 -3.18239,-3.75 -1.75031,-0.93692 -4.56281,-3.14957 -6.25,-4.91701 -8.68264,-9.09562 -44.92536,-18.69316 -59.94774,-15.87495 -5.49158,1.03023 -4.59622,3.27365 1.63013,4.08446 18.2098,2.37133 36.30423,7.75594 47.25,14.06082 14.10542,8.12488 20.5,10.1202 20.5,6.39668 z M 603.82039,146.19205 c -0.33229,-0.33229 -1.1948,-0.36781 -1.91667,-0.0789 -0.79773,0.31922 -0.56078,0.55618 0.60417,0.60416 1.05416,0.0434 1.64479,-0.19293 1.3125,-0.52522 z m 8.77083,-1.42196 c 1.33546,-0.59132 0.50479,-0.68786 -2.5,-0.29056 -2.475,0.32725 -4.6875,0.75739 -4.91667,0.95585 -0.86863,0.75225 5.50681,0.18036 7.41667,-0.66529 z m 781.02908,950.43451 c -9.6764,-2.1641 -16.8531,-5.801 -20.9945,-10.6392 -13.0353,-15.2289 -8.179,-27.2528 5.2763,-13.0639 20.7924,21.926 57.3068,18.3128 57.1538,-5.6556 -0.072,-11.2043 -7.292,-18.1327 -38.6118,-37.0498 -22.7768,-13.7571 -30.6694,-23.0544 -27.8867,-40.34365 1.5069,-9.36258 2.3898,-18.34432 22.2873,-26.28752 19.8975,-7.94319 51.2466,4.08122 51.2466,21.84322 0,6.8786 -2.3869,6.4136 -11.5376,-2.2475 -16.4118,-15.5339 -34.1636,-17.6425 -44.3623,-5.2696 -9.0603,10.9916 -2.2643,22.1845 22.9197,37.74835 38.6515,23.8871 48.7519,47.5242 29.619,69.3153 -9.0513,10.3089 -28.5686,15.3493 -45.1098,11.6499 z m -171.7174,-5.0641 c -37.5618,-0.8216 -49.9801,-16.5171 -51.8341,-72.8444 -1.2375,-37.59605 -1.618,-39.26115 -10.1721,-44.52455 -7.1275,-4.3857 -4.9534,-6.4503 7.9218,-7.5228 20.0604,-1.671 42.8364,2.5318 32.5228,6.0014 -8.1979,2.7579 -10.5827,9.2506 -12.3218,33.54605 -2.4611,34.3811 2.0136,73.1376 34.9294,72.1613 6.0306,-0.1789 21.5627,5.256 36.1134,-16.9084 16.0437,-24.4385 16.8133,-77.10785 1.279,-87.53295 -8.0292,-5.3883 -4.6857,-6.9846 15.75,-7.5194 14.3198,-0.3748 15.6713,-0.2557 17.75,1.5642 2.9719,2.6019 3.0675,2.4093 -3.2883,6.6293 -7.7553,5.1493 -9.4617,12.6052 -9.4617,41.34265 0,59.2217 -19.1524,76.4833 -59.1884,75.6076 z m 482.113,3.7214 c -53.5586,-7.3483 -76.7196,-64.2963 -43.7206,-107.49935 27.399,-35.8714 108.7603,-31.5709 98.8522,5.225 -2.0325,7.5482 -5.4639,6.8172 -9.6274,-2.0508 -19.9488,-42.4902 -86.3472,-16.0978 -86.4169,34.34935 -0.077,55.494 64.3296,85.7456 89.2246,41.9088 5.3791,-9.472 9.3787,-10.1401 9.0028,-1.504 -0.8223,18.8945 -29.0357,33.451 -57.3147,29.571 z m -767.89869,-4.142 c -8.1127,-1.4403 -8.36586,-2.3525 -2.17762,-7.8467 11.68009,-10.37 14.68209,-96.16395 3.58221,-102.37575 -14.31686,-8.0121 -10.17377,-14.7012 9.10563,-14.7012 18.54537,0 20.2127,2.1865 39.41353,51.68655 18.65784,48.1002 18.84994,48.1268 34.59304,4.7945 20.6203,-56.75645 21.0672,-57.31505 44.9573,-56.20505 15.1793,0.7053 17.7291,2.2216 11.8542,7.0496 -10.2634,8.4346 -10.8836,11.0905 -10.7814,46.17425 0.1144,39.3008 4.2481,59.0773 13.4417,64.3085 9.6627,5.498 -4.7485,8.9832 -29.6853,7.1791 -14.9855,-1.0841 -17.0846,-4.0346 -6.8079,-9.569 6.6188,-3.5645 8.1836,-17.0013 5.9759,-51.316 -2.9561,-45.94645 -3.8757,-45.75295 -23.2711,4.8974 -17.5507,45.833 -21.8197,55 -25.6127,55 -2.22474,0 -12.74014,-21.9104 -18.95724,-39.5 -2.33645,-6.6104 -16.75979,-39.9047 -17.86974,-41.2499 -5.91108,-7.164 -9.52711,9.1397 -8.47153,38.1959 0.83103,22.8753 2.96207,31.4413 8.7274,35.0807 10.67619,6.7396 -7.18998,12.0945 -28.01638,8.3971 z m 596.15869,0.1218 c -8.107,-1.2859 -8.2087,-3.4739 -0.3653,-7.8586 7.0603,-3.9469 8.6294,-15.3205 7.877,-57.0932 -0.7198,-39.96165 -1.7079,-45.21635 -9.6343,-51.23235 -8.318,-6.3134 -3.7456,-8.3291 18.938,-8.3482 22.7689,-0.019 27.9786,2.4746 18.0554,8.6432 -7.6567,4.7596 -8.2195,8.0492 -8.7853,51.34355 -0.614,46.9913 -0.061,50.6028 8.6514,56.5413 5.9268,4.0395 6.2678,5.3333 1.8285,6.9374 -4.0496,1.4633 -29.4028,2.203 -36.5654,1.0669 z m -782.43306,-50.0626 c -8.3046,-0.9518 -11.21772,-1.6737 -19.62841,-4.8639 -7.04729,-2.673 -8.33671,-5.466 -3.14966,-6.8224 1.0799,-0.2824 3.07219,-2.4054 4.4273,-4.7177 4.02051,-6.8605 17.79835,-8.4449 74.09915,-8.5213 62.86063,-0.085 77.25247,3.5409 68.01412,17.1363 -4.61065,6.7852 -87.18088,11.9817 -123.7625,7.789 z m 1078.04696,-0.064 c -13.4544,-1.4245 -15.3647,-2.2644 -18.26,-8.0289 -7.2347,-14.404 1.2944,-16.3154 72.9615,-16.3515 68.6213,-0.035 82.0116,3.7028 66.9941,18.6989 -5.6738,5.6657 -86.2942,9.4296 -121.6956,5.6815 z m 51.9734,-139.44532 c -61.9391,-12.32616 -53.8802,-52.93988 18.7281,-94.38173 27.9858,-15.97318 28.2737,-17.03748 11.5176,-42.59143 -11.4236,-17.42182 -24.802,-46.14942 -29.1312,-62.55419 -7.0246,-26.61831 4.2062,-59.56326 23.9454,-70.24258 43.304,-23.4284 65.1858,11.34422 32.7192,51.99449 -16.0025,20.03606 11.5236,89.0905 33.1342,83.12353 14.6779,-4.05277 45.277,-27.07863 80.8241,-60.82033 24.7021,-23.4475 37.4907,-28.53685 37.4907,-14.9198 0,5.47348 -6.3789,13.56153 -26.3764,33.4436 -24.794,24.65087 -41.2306,38.01742 -68.6236,55.8061 -14.2489,9.25304 -14.2578,9.27335 -13.4402,30.64891 2.0993,54.88277 -49.0334,100.7928 -100.7879,90.49343 z m 32.956,-24.71727 c 16.4301,-6.24213 32.0061,-41.7649 25.4344,-58.00589 -5.3719,-13.27581 -66.7879,31.37219 -63.7878,46.3723 2.522,12.61032 21.0166,18.22019 38.3534,11.63359 z M 788.55799,870.73742 C 705.03689,864.2934 654.5116,779.39137 683.10624,693.53771 c 19.67265,-59.06594 58.12057,-93.62068 111.42392,-100.14129 14.54566,-1.77937 24.09815,-6.04532 35.06106,-15.65755 52.20933,-45.77695 119.55245,-40.59546 156.70764,12.05735 68.71474,97.37609 -33.87326,268.1692 -168.76054,280.96024 -11.94046,1.13229 -14.0762,1.13088 -28.98033,-0.019 z m 47.03323,-28.98771 c 88.20421,-10.09549 157.12524,-136.52595 117.99518,-216.45349 -43.96775,-89.8092 -152.92816,-29.79519 -130.35114,71.79574 2.12263,9.55128 -3.38318,12.15555 -14.41164,6.81676 -18.27702,-8.84775 -23.39161,-28.37778 -15.76418,-60.19542 4.08401,-17.03635 0.84655,-28.79881 -7.25599,-26.36277 -36.80022,11.06405 -68.68915,62.84341 -68.70842,111.5647 -0.0192,48.42859 36.70524,97.38214 82.47491,109.93887 13.17986,3.61584 22.90108,4.39729 36.02128,2.89561 z m 238.78068,26.94551 c -6.3957,-0.82479 -13.7474,-4.97667 -16.3395,-9.22788 -4.0412,-6.62759 -5.2619,0.86895 27.058,-166.17112 33.2225,-171.7056 32.3324,-156.6323 9.2307,-156.31805 -26.2247,0.35675 -36.3443,-5.58512 -42.5769,-24.99983 -5.3947,-16.80415 -4.0292,-18.06039 12.6348,-11.62379 19.8868,7.68147 43.9386,7.51597 80.0168,-0.55061 18.267,-4.08424 20.961,-4.052 20.242,0.24228 -0.2993,1.7875 -1.4649,8.875 -2.5903,15.75 -7.5754,46.27794 -27.7067,151.47239 -38.0196,198.66854 -9.0213,41.28521 -7.7827,42.92589 9.5101,12.59801 39.8974,-69.97119 81.5129,-106.0079 111.8687,-96.87214 22.9543,6.90824 34.81,24.091 38.7114,56.10559 0.6032,4.95 1.7236,13.5 2.4899,19 0.7662,5.5 1.8667,18.325 2.4455,28.5 3.3824,59.46207 7.9553,74 23.2767,74 28.7617,0 119.7226,-114.83587 108.3622,-136.80454 -6.3176,-12.2169 9.136,-20.97985 35.7489,-20.27134 11.9832,0.31903 14.1666,20.72064 8.677,81.07588 -4.2973,47.24491 -3.4152,48.90518 11.5219,21.68686 19.786,-36.05406 24.1219,-43.68885 30.7104,-54.07521 68.8724,-108.57461 123.2104,-89.53037 131.2287,45.99272 2.8504,48.17655 8.4916,75.8714 16.0447,78.76979 18.8903,7.24889 37.9444,-11.52536 89.5358,-88.22053 12.3373,-18.34051 23.3748,-34.89769 24.5277,-36.79374 6.3698,-10.47553 13.8301,-13.2169 20.1813,-7.41592 5.4118,4.9429 4.0856,9.75326 -8.963,32.50998 -47.8562,83.46093 -93.5164,134.17034 -127.1197,141.17682 -40.2158,8.38523 -56.4127,-25.40975 -59.7317,-124.63077 -2.3335,-69.76086 -10.5744,-81.7937 -37.9463,-55.40709 -27.1401,26.16312 -85.1907,122.86786 -98.6958,164.41439 -5.7315,17.63185 -12.59,22.1362 -27.4522,18.02935 -16.8858,-4.66603 -19.3129,-12.4991 -15.3491,-49.53665 3.4584,-32.3148 5.9917,-66.24826 5.5562,-74.42431 -0.1181,-2.21597 -4.2771,2.10932 -13.3892,13.92431 -68.7113,89.09309 -105.3074,111.20234 -135.9253,82.1183 -16.0451,-15.24123 -20.782,-34.69334 -25.2332,-103.6183 -3.9125,-60.58514 -11.2082,-73.43379 -34.2908,-60.39029 -27.0927,15.30958 -103.1523,136.01531 -110.2647,174.98893 -2.6,14.24748 -10.5471,19.75345 -25.6921,17.80036 z m 713.7194,-255.60271 c -8.2606,-3.00581 -12.5296,-14.93895 -15.4889,-43.29629 -2.9819,-28.57291 -5.024,-38.51732 -10.884,-53 -4.2128,-10.41194 -1.6604,-12.8263 16.4915,-15.59933 33.478,-5.11439 37.4172,0.49314 29.9249,42.59933 -4.9444,27.78764 -8.0357,49.92061 -8.0398,57.56291 -0.01,9.73752 -4.748,14.37356 -12.0037,11.73338 z"
       id="path4675"
       style="fill:#000000;fill-opacity:1;stroke:#000000;stroke-opacity:0.99322031" />
  </g>
  <path
     d=""
     id="path4141"
     style="fill:#000000" />
</svg>
