<?xml version="1.0" encoding="UTF-8" standalone="no"?>
<!-- Created with Inkscape (http://www.inkscape.org/) -->
<svg id="svg3569" xmlns:rdf="http://www.w3.org/1999/02/22-rdf-syntax-ns#" xmlns="http://www.w3.org/2000/svg" height="1554" width="2151" version="1.1" xmlns:cc="http://creativecommons.org/ns#" xmlns:dc="http://purl.org/dc/elements/1.1/">
<metadata id="metadata3575">
<rdf:RDF>
<cc:Work rdf:about="">
<dc:format>image/svg+xml</dc:format>
<dc:type rdf:resource="http://purl.org/dc/dcmitype/StillImage"/>
<dc:title/>
</cc:Work>
</rdf:RDF>
</metadata>
<g id="g4673" stroke-opacity="0.99322032999999998" transform="translate(-1.8325442,-12.82783)" stroke="#FFF" fill="#FFF">
<path id="path4675" d="m403.18,1435.8c-3.5265-0.4964-9.1515-1.5573-12.5-2.3575-3.3485-0.8001-8.5632-1.9947-11.588-2.6546-3.025-0.6599-5.95-1.7194-6.5-2.3543-0.55-0.635-5.05-2.6702-10-4.5228-14.509-5.4299-26.072-11.689-32.486-17.586-27.876-15.733-47.908-41.116-58.977-67.513-37.88-59.333-50.607-134.97-100.47-186.3-25.879-25.277-54.074-73.852-88.185-79.779-13.7-1.5364-18.064-3.3758-31.383-13.228-21.308-15.761-18.767-51.685,5.8238-82.35,14.944-18.636,37.977-39.79,49.176-45.165,2.475-1.1878,8.9902-5.7722,14.478-10.188,10.258-8.2526,21.191-14.509,34.769-19.897,10.795-4.2836,23.108-10.586,39.179-20.053,15.572-9.1739,22.926-13.043,24.791-13.044,2.5385-0.002,13.482-5.8551,23.783-12.722,13.374-8.9145,19.885-12.538,28-15.582,3.575-1.341,13.25-5.5862,21.5-9.4337,39.251-18.305,52.889-21.177,74.558-15.699,16.717,4.226,20.923,7.9022,20.953,18.314,0.006,1.9926,0.9057,8.7398,2,14.994,3.1586,18.051,2.1503,48.575-3.1259,94.629-2.9264,25.543-1.7958,32.121,10.172,59.185,14.648,33.126,52.094,87.315,60.336,87.315,10.397,0,12.148-14.31,11.014-90-0.49855-33.275-0.77529-102.35-0.61497-153.5s-0.21537-134.62-0.83487-185.5c-0.6195-50.875-1.2992-111.85-1.5104-135.5-0.46991-52.613-2.0373-124.11-3.5734-163-4.5392-114.92,1.0855-152.08,29.442-194.5,54.358-81.313,124.19-93.705,254.11-45.094,26.221,9.8101,61.588,19.078,99.071,25.962,28.415,5.2182,33.851,9.1036,36.492,26.081,3.0679,19.721-7.153,26.959-40.992,29.027-14.366,0.87792-26.67,2.8837-39.845,6.4953-31.027,8.5057-89.233,1.1626-122.66-15.474-21.941-10.921-33.439-9.7812-48.763,4.8349-18.85,17.98-28.394,44.001-30.686,83.668-5.8078,100.5-5.0278,238.43,1.9592,346.5,1.0846,16.775,2.213,34.55,2.5076,39.5,1.6934,28.454,4.9149,71.1,7.5105,99.424,1.6342,17.833,2.9713,34.512,2.9713,37.064,0,2.5521,2.0229,19.192,4.4954,36.979,2.4725,17.786,6.317,48.357,8.5435,67.936,2.2264,19.578,6.0406,51.347,8.4759,70.597s6.2644,50.975,8.5091,70.5c5.2073,45.295,10.334,83.608,12.981,97,6.727,34.041,5.9897,108.48-1.3422,135.5-2.3796,8.7703-8.6601,29.525-13.617,45-2.6428,8.25-5.3038,16.834-5.9134,19.077-2.3399,8.6069-16.461,27.001-31.606,41.171-4.7893,4.4809-9.9971,10.18-11.573,12.665-2.9443,4.6427-10.972,9.5785-20.453,12.575-2.2,0.6955-6.25,2.3035-9,3.5734s-8.825,3.0338-13.5,3.9198c-4.675,0.8861-15.603,3.1752-24.284,5.0871-11.071,2.4381-21.373,3.9193-34.5,4.9604-10.294,0.8164-22.766,1.9505-27.716,2.5202-12.36,1.4226-51.575,2.0427-59.412,0.9394zm90.333-53.453c20.762-4.7249,41.191-12.94,49.423-19.876,26.001-16.19,44.022-44.293,54.651-69.497,16.89-41.402,15.12-148.06-4.4668-269.16-8.299-51.311-8.6574-54.724-20.055-191-4.2561-50.89-5.6777-69.712-7.4401-98.5-0.84174-13.75-2.0003-32.65-2.5746-42-0.57428-9.35-2.1756-27.575-3.5584-40.5s-2.9391-28.675-3.4584-35c-0.51927-6.325-1.3923-16-1.9401-21.5-4.9587-49.788-3.7767-256.6,2.0404-357,3.3956-58.607,12.349-78.477,40.457-89.787,6.9568-2.7994,1.0606-1.8453-11.192,1.8111-42.468,12.673-57.942,34.761-72.842,103.98-8.7914,40.838-9.7163,53.434-7.0122,95.5,5.2953,82.376,5.8536,116.55,6.1098,374,0.24347,244.69,0.28201,247,4.3222,260.08,6.942,22.463,8.7632,39.422,7.187,66.922-3.0621,53.424-3.477,56.316-10.446,72.842-5.7204,13.564-19.78,33.511-25.492,36.168-22.967,10.682-34.214,11.622-39.657,3.3163-3.4021-5.1923-10.951-12.561-24.478-23.893-11.912-9.9788-21-19.495-21-21.988,0-1.8881-5.5058-8.5943-8.6528-10.539-4.4271-2.7361-10.387-11.247-19.827-28.312-10.069-18.202-11.945-21.126-17.422-27.153-10.792-11.874-19.53-37.529-22.629-66.441-2.7441-25.598-6.2254-24.853-64.356,13.776-9.5632,6.3548-18.944,12.089-20.846,12.743-1.9022,0.6539-4.4278,2.3932-5.6124,3.865-1.4491,1.8004-6.4075,4.4132-15.154,7.9851-7.15,2.92-19.3,8.7684-27,12.996-12.85,7.056-21.128,10.297-37.25,14.584-6.9953,1.8602-3.7406,9.001,8.8516,19.42,17.067,14.122,60.735,64.995,65.498,76.305,0.77015,1.8286,2.1029,4.9729,2.9616,6.9873,0.85871,2.0144,3.6065,6.2656,6.1061,9.4473,2.4996,3.1816,7.1259,11.096,10.28,17.588,3.1546,6.4915,8.8943,17.428,12.755,24.303,9.2633,16.496,13.175,24.331,15.452,30.95,1.0329,3.0022,5.6567,12.229,10.275,20.504,9.687,17.358,13.412,25.248,16.543,35.046,9.7198,41.868,33.404,57.287,63.027,74.057,29.023,17.397,82.74,25.099,118.42,16.978zm-386.27-363.9c38.827-16.433,75.015-41.695,107.85-59.315,22.391-11.488,41.731-22.552,46.638-26.681,1.574-1.3244,5.3055-3.8489,8.2924-5.61,14.028-7.0584,74.548-58.821,67.916-59.848-51.663,13.876-115.48,56.268-140.49,70.905-30.82,19.492-80.643,40.913-100.93,76.055-3.802,7.3522,1.8478,9.7188,10.73,4.4946zm630.85-851.65c0-1.2764-1.1975-2.6875-3.1824-3.75-1.7503-0.93692-4.5628-3.1496-6.25-4.917-8.6826-9.0956-44.925-18.693-59.948-15.875-5.4916,1.0302-4.5962,3.2736,1.6301,4.0845,18.21,2.3713,36.304,7.7559,47.25,14.061,14.105,8.1249,20.5,10.12,20.5,6.3967zm-134.27-20.56c-0.33229-0.33229-1.1948-0.36781-1.9167-0.0789-0.79773,0.31922-0.56078,0.55618,0.60417,0.60416,1.0542,0.0434,1.6448-0.19293,1.3125-0.52522zm8.7708-1.422c1.3355-0.59132,0.50479-0.68786-2.5-0.29056-2.475,0.32725-4.6875,0.75739-4.9167,0.95585-0.86863,0.75225,5.5068,0.18036,7.4167-0.66529zm781.03,950.43c-9.6764-2.1641-16.853-5.801-20.994-10.639-13.035-15.229-8.179-27.253,5.2763-13.064,20.792,21.926,57.307,18.313,57.154-5.6556-0.072-11.204-7.292-18.133-38.612-37.05-22.777-13.757-30.669-23.054-27.887-40.344,1.5069-9.3626,2.3898-18.344,22.287-26.288,19.898-7.9432,51.247,4.0812,51.247,21.843,0,6.8786-2.3869,6.4136-11.538-2.2475-16.412-15.534-34.164-17.642-44.362-5.2696-9.0603,10.992-2.2643,22.184,22.92,37.748,38.652,23.887,48.752,47.524,29.619,69.315-9.0513,10.309-28.569,15.349-45.11,11.65zm-171.72-5.0641c-37.562-0.8216-49.98-16.517-51.834-72.844-1.2375-37.596-1.618-39.261-10.172-44.525-7.1275-4.3857-4.9534-6.4503,7.9218-7.5228,20.06-1.671,42.836,2.5318,32.523,6.0014-8.1979,2.7579-10.583,9.2506-12.322,33.546-2.4611,34.381,2.0136,73.138,34.929,72.161,6.0306-0.1789,21.563,5.256,36.113-16.908,16.044-24.438,16.813-77.108,1.279-87.533-8.0292-5.3883-4.6857-6.9846,15.75-7.5194,14.32-0.3748,15.671-0.2557,17.75,1.5642,2.9719,2.6019,3.0675,2.4093-3.2883,6.6293-7.7553,5.1493-9.4617,12.605-9.4617,41.343,0,59.222-19.152,76.483-59.188,75.608zm482.11,3.7214c-53.559-7.3483-76.72-64.296-43.721-107.5,27.399-35.871,108.76-31.571,98.852,5.225-2.0325,7.5482-5.4639,6.8172-9.6274-2.0508-19.949-42.49-86.347-16.098-86.417,34.349-0.077,55.494,64.33,85.746,89.225,41.909,5.3791-9.472,9.3787-10.14,9.0028-1.504-0.8223,18.894-29.036,33.451-57.315,29.571zm-767.9-4.142c-8.1127-1.4403-8.3659-2.3525-2.1776-7.8467,11.68-10.37,14.682-96.164,3.5822-102.38-14.317-8.0121-10.174-14.701,9.1056-14.701,18.545,0,20.213,2.1865,39.414,51.687,18.658,48.1,18.85,48.127,34.593,4.7945,20.62-56.756,21.067-57.315,44.957-56.205,15.179,0.7053,17.729,2.2216,11.854,7.0496-10.263,8.4346-10.884,11.09-10.781,46.174,0.1144,39.301,4.2481,59.077,13.442,64.308,9.6627,5.498-4.7485,8.9832-29.685,7.1791-14.986-1.0841-17.085-4.0346-6.8079-9.569,6.6188-3.5645,8.1836-17.001,5.9759-51.316-2.9561-45.946-3.8757-45.753-23.271,4.8974-17.551,45.833-21.82,55-25.613,55-2.2247,0-12.74-21.91-18.957-39.5-2.3364-6.6104-16.76-39.905-17.87-41.25-5.9111-7.164-9.5271,9.1397-8.4715,38.196,0.83103,22.875,2.9621,31.441,8.7274,35.081,10.676,6.7396-7.19,12.094-28.016,8.3971zm596.16,0.1218c-8.107-1.2859-8.2087-3.4739-0.3653-7.8586,7.0603-3.9469,8.6294-15.32,7.877-57.093-0.7198-39.962-1.7079-45.216-9.6343-51.232-8.318-6.3134-3.7456-8.3291,18.938-8.3482,22.769-0.019,27.979,2.4746,18.055,8.6432-7.6567,4.7596-8.2195,8.0492-8.7853,51.344-0.614,46.991-0.061,50.603,8.6514,56.541,5.9268,4.0395,6.2678,5.3333,1.8285,6.9374-4.0496,1.4633-29.403,2.203-36.565,1.0669zm-782.43-50.063c-8.3046-0.9518-11.218-1.6737-19.628-4.8639-7.0473-2.673-8.3367-5.466-3.1497-6.8224,1.0799-0.2824,3.0722-2.4054,4.4273-4.7177,4.0205-6.8605,17.798-8.4449,74.099-8.5213,62.861-0.085,77.252,3.5409,68.014,17.136-4.6106,6.7852-87.181,11.982-123.76,7.789zm1078-0.064c-13.454-1.4245-15.365-2.2644-18.26-8.0289-7.2347-14.404,1.2944-16.315,72.962-16.352,68.621-0.035,82.012,3.7028,66.994,18.699-5.6738,5.6657-86.294,9.4296-121.7,5.6815zm51.973-139.45c-61.939-12.326-53.88-52.94,18.728-94.382,27.986-15.973,28.274-17.037,11.518-42.591-11.424-17.422-24.802-46.149-29.131-62.554-7.0246-26.618,4.2062-59.563,23.945-70.243,43.304-23.428,65.186,11.344,32.719,51.994-16.002,20.036,11.524,89.09,33.134,83.124,14.678-4.0528,45.277-27.079,80.824-60.82,24.702-23.448,37.491-28.537,37.491-14.92,0,5.4735-6.3789,13.562-26.376,33.444-24.794,24.651-41.231,38.017-68.624,55.806-14.249,9.253-14.258,9.2734-13.44,30.649,2.0993,54.883-49.033,100.79-100.79,90.493zm32.956-24.717c16.43-6.2421,32.006-41.765,25.434-58.006-5.3719-13.276-66.788,31.372-63.788,46.372,2.522,12.61,21.017,18.22,38.353,11.634zm-1124.3-4.69c-83.52-6.45-134.05-91.35-105.45-177.2,19.673-59.066,58.121-93.621,111.42-100.14,14.546-1.7794,24.098-6.0453,35.061-15.658,52.209-45.777,119.55-40.595,156.71,12.057,68.715,97.376-33.873,268.17-168.76,280.96-11.94,1.1323-14.076,1.1309-28.98-0.019zm47.033-28.988c88.204-10.095,157.13-136.53,118-216.45-43.968-89.809-152.93-29.795-130.35,71.796,2.1226,9.5513-3.3832,12.156-14.412,6.8168-18.277-8.8478-23.392-28.378-15.764-60.195,4.084-17.036,0.84655-28.799-7.256-26.363-36.8,11.064-68.689,62.843-68.708,111.56-0.0192,48.429,36.705,97.382,82.475,109.94,13.18,3.6158,22.901,4.3973,36.021,2.8956zm238.78,26.946c-6.3957-0.82479-13.747-4.9767-16.34-9.2279-4.0412-6.6276-5.2619,0.86895,27.058-166.17,33.222-171.71,32.332-156.63,9.2307-156.32-26.225,0.35675-36.344-5.5851-42.577-25-5.3947-16.804-4.0292-18.06,12.635-11.624,19.887,7.6815,43.939,7.516,80.017-0.55061,18.267-4.0842,20.961-4.052,20.242,0.24228-0.2993,1.7875-1.4649,8.875-2.5903,15.75-7.5754,46.278-27.707,151.47-38.02,198.67-9.0213,41.285-7.7827,42.926,9.5101,12.598,39.897-69.971,81.513-106.01,111.87-96.872,22.954,6.9082,34.81,24.091,38.711,56.106,0.6032,4.95,1.7236,13.5,2.4899,19,0.7662,5.5,1.8667,18.325,2.4455,28.5,3.3824,59.462,7.9553,74,23.277,74,28.762,0,119.72-114.84,108.36-136.8-6.3176-12.217,9.136-20.98,35.749-20.271,11.983,0.31903,14.167,20.721,8.677,81.076-4.2973,47.245-3.4152,48.905,11.522,21.687,19.786-36.054,24.122-43.689,30.71-54.075,68.872-108.57,123.21-89.53,131.23,45.993,2.8504,48.177,8.4916,75.871,16.045,78.77,18.89,7.2489,37.944-11.525,89.536-88.221,12.337-18.341,23.375-34.898,24.528-36.794,6.3698-10.476,13.83-13.217,20.181-7.4159,5.4118,4.9429,4.0856,9.7533-8.963,32.51-47.856,83.461-93.516,134.17-127.12,141.18-40.216,8.3852-56.413-25.41-59.732-124.63-2.3335-69.761-10.574-81.794-37.946-55.407-27.14,26.163-85.191,122.87-98.696,164.41-5.7315,17.632-12.59,22.136-27.452,18.029-16.886-4.666-19.313-12.499-15.349-49.537,3.4584-32.315,5.9917-66.248,5.5562-74.424-0.1181-2.216-4.2771,2.1093-13.389,13.924-68.711,89.093-105.31,111.2-135.93,82.118-16.045-15.241-20.782-34.693-25.233-103.62-3.9125-60.585-11.208-73.434-34.291-60.39-27.093,15.31-103.15,136.02-110.26,174.99-2.6,14.247-10.547,19.753-25.692,17.8zm713.72-255.6c-8.2606-3.0058-12.53-14.939-15.489-43.296-2.9819-28.573-5.024-38.517-10.884-53-4.2128-10.412-1.6604-12.826,16.492-15.599,33.478-5.1144,37.417,0.49314,29.925,42.599-4.9444,27.788-8.0357,49.921-8.0398,57.563-0.01,9.7375-4.748,14.374-12.004,11.733z" stroke-opacity="0.99322032999999998" stroke="#FFF" fill="#FFF"/>
</g>
</svg>
