<svg xmlns="http://www.w3.org/2000/svg" height="1554" width="2151"><path d="M403.18 1435.8c-3.526-.496-9.152-1.557-12.5-2.357-3.349-.8-8.563-1.995-11.588-2.655-3.025-.66-5.95-1.719-6.5-2.354-.55-.635-5.05-2.67-10-4.523-14.509-5.43-26.072-11.689-32.486-17.586-27.876-15.733-47.908-41.116-58.977-67.513-37.88-59.333-50.607-134.97-100.47-186.3-25.879-25.277-54.074-73.852-88.185-79.779-13.7-1.536-18.064-3.376-31.383-13.228-21.308-15.761-18.767-51.685 5.824-82.35 14.944-18.636 37.977-39.79 49.176-45.165 2.475-1.188 8.99-5.772 14.478-10.188 10.258-8.253 21.191-14.509 34.769-19.897 10.795-4.284 23.108-10.586 39.179-20.053 15.572-9.174 22.926-13.043 24.791-13.044 2.538-.002 13.482-5.855 23.783-12.722 13.374-8.915 19.885-12.538 28-15.582 3.575-1.341 13.25-5.586 21.5-9.434 39.251-18.305 52.889-21.177 74.558-15.699 16.717 4.226 20.923 7.902 20.953 18.314.006 1.993.906 8.74 2 14.994 3.159 18.051 2.15 48.575-3.126 94.629-2.926 25.543-1.796 32.121 10.172 59.185 14.648 33.126 52.094 87.315 60.336 87.315 10.397 0 12.148-14.31 11.014-90-.499-33.275-.775-102.35-.615-153.5s-.215-134.62-.835-185.5c-.62-50.875-1.299-111.85-1.51-135.5-.47-52.613-2.037-124.11-3.573-163-4.539-114.92 1.085-152.08 29.442-194.5 54.358-81.313 124.19-93.705 254.11-45.094 26.221 9.81 61.588 19.078 99.071 25.962 28.415 5.218 33.851 9.104 36.492 26.081 3.068 19.721-7.153 26.959-40.992 29.027-14.366.878-26.67 2.884-39.845 6.495-31.027 8.506-89.233 1.163-122.66-15.474-21.941-10.921-33.439-9.781-48.763 4.835-18.85 17.98-28.394 44.001-30.686 83.668-5.808 100.5-5.028 238.43 1.959 346.5 1.085 16.775 2.213 34.55 2.508 39.5 1.693 28.454 4.915 71.1 7.511 99.424 1.634 17.833 2.971 34.512 2.971 37.064 0 2.552 2.023 19.192 4.495 36.979 2.473 17.786 6.317 48.357 8.543 67.936 2.226 19.578 6.041 51.347 8.476 70.597s6.264 50.975 8.509 70.5c5.207 45.295 10.334 83.608 12.981 97 6.727 34.041 5.99 108.48-1.342 135.5-2.38 8.77-8.66 29.525-13.617 45-2.643 8.25-5.304 16.834-5.913 19.077-2.34 8.607-16.461 27.001-31.606 41.171-4.789 4.481-9.997 10.18-11.573 12.665-2.944 4.643-10.972 9.579-20.453 12.575-2.2.696-6.25 2.304-9 3.573s-8.825 3.034-13.5 3.92c-4.675.886-15.603 3.175-24.284 5.087-11.071 2.438-21.373 3.919-34.5 4.96-10.294.816-22.766 1.95-27.716 2.52-12.36 1.423-51.575 2.043-59.412.939zm90.333-53.453c20.762-4.725 41.191-12.94 49.423-19.876 26.001-16.19 44.022-44.293 54.651-69.497 16.89-41.402 15.12-148.06-4.467-269.16-8.299-51.311-8.657-54.724-20.055-191-4.256-50.89-5.678-69.712-7.44-98.5-.842-13.75-2-32.65-2.575-42-.574-9.35-2.176-27.575-3.558-40.5s-2.939-28.675-3.458-35c-.519-6.325-1.392-16-1.94-21.5-4.959-49.788-3.777-256.6 2.04-357 3.396-58.607 12.349-78.477 40.457-89.787 6.957-2.799 1.061-1.845-11.192 1.811-42.468 12.673-57.942 34.761-72.842 103.98-8.791 40.838-9.716 53.434-7.012 95.5 5.295 82.376 5.854 116.55 6.11 374 .243 244.69.282 247 4.322 260.08 6.942 22.463 8.763 39.422 7.187 66.922-3.062 53.424-3.477 56.316-10.446 72.842-5.72 13.564-19.78 33.511-25.492 36.168-22.967 10.682-34.214 11.622-39.657 3.316-3.402-5.192-10.951-12.561-24.478-23.893-11.912-9.979-21-19.495-21-21.988 0-1.888-5.506-8.594-8.653-10.539-4.427-2.736-10.387-11.247-19.827-28.312-10.069-18.202-11.945-21.126-17.422-27.153-10.792-11.874-19.53-37.529-22.629-66.441-2.744-25.598-6.225-24.853-64.356 13.776-9.563 6.355-18.944 12.089-20.846 12.743-1.902.654-4.428 2.393-5.612 3.865-1.449 1.8-6.407 4.413-15.154 7.985-7.15 2.92-19.3 8.768-27 12.996-12.85 7.056-21.128 10.297-37.25 14.584-6.995 1.86-3.741 9.001 8.852 19.42 17.067 14.122 60.735 64.995 65.498 76.305.77 1.829 2.103 4.973 2.962 6.987.859 2.014 3.607 6.266 6.106 9.447 2.5 3.182 7.126 11.096 10.28 17.588 3.155 6.492 8.894 17.428 12.755 24.303 9.263 16.496 13.175 24.331 15.452 30.95 1.033 3.002 5.657 12.229 10.275 20.504 9.687 17.358 13.412 25.248 16.543 35.046 9.72 41.868 33.404 57.287 63.027 74.057 29.023 17.397 82.74 25.099 118.42 16.978zm-386.27-363.9c38.827-16.433 75.015-41.695 107.85-59.315 22.391-11.488 41.731-22.552 46.638-26.681 1.574-1.324 5.306-3.849 8.292-5.61 14.028-7.058 74.548-58.821 67.916-59.848-51.663 13.876-115.48 56.268-140.49 70.905-30.82 19.492-80.643 40.913-100.93 76.055-3.802 7.352 1.848 9.719 10.73 4.495zm630.85-851.65c0-1.276-1.198-2.688-3.182-3.75-1.75-.937-4.563-3.15-6.25-4.917-8.683-9.096-44.925-18.693-59.948-15.875-5.492 1.03-4.596 3.274 1.63 4.085 18.21 2.371 36.304 7.756 47.25 14.061 14.105 8.125 20.5 10.12 20.5 6.397zm-134.27-20.56c-.332-.332-1.195-.368-1.917-.079-.798.319-.561.556.604.604 1.054.043 1.645-.193 1.313-.525zm8.771-1.422c1.335-.591.505-.688-2.5-.291-2.475.327-4.688.757-4.917.956-.869.752 5.507.18 7.417-.665zm781.03 950.43c-9.676-2.164-16.853-5.801-20.994-10.639-13.035-15.229-8.179-27.253 5.276-13.064 20.792 21.926 57.307 18.313 57.154-5.656-.072-11.204-7.292-18.133-38.612-37.05-22.777-13.757-30.669-23.054-27.887-40.344 1.507-9.363 2.39-18.344 22.287-26.288 19.898-7.943 51.247 4.081 51.247 21.843 0 6.879-2.387 6.414-11.538-2.248-16.412-15.534-34.164-17.642-44.362-5.27-9.06 10.992-2.264 22.184 22.92 37.748 38.652 23.887 48.752 47.524 29.619 69.315-9.051 10.309-28.569 15.349-45.11 11.65zm-171.72-5.064c-37.562-.822-49.98-16.517-51.834-72.844-1.238-37.596-1.618-39.261-10.172-44.525-7.128-4.386-4.953-6.45 7.922-7.523 20.06-1.671 42.836 2.532 32.523 6.001-8.198 2.758-10.583 9.251-12.322 33.546-2.461 34.381 2.014 73.138 34.929 72.161 6.031-.179 21.563 5.256 36.113-16.908 16.044-24.438 16.813-77.108 1.279-87.533-8.029-5.388-4.686-6.985 15.75-7.519 14.32-.375 15.671-.256 17.75 1.564 2.972 2.602 3.067 2.409-3.288 6.629-7.755 5.149-9.462 12.605-9.462 41.343 0 59.222-19.152 76.483-59.188 75.608zm482.11 3.721c-53.559-7.348-76.72-64.296-43.721-107.5 27.399-35.871 108.76-31.571 98.852 5.225-2.033 7.548-5.464 6.817-9.627-2.051-19.949-42.49-86.347-16.098-86.417 34.349-.077 55.494 64.33 85.746 89.225 41.909 5.379-9.472 9.379-10.14 9.003-1.504-.822 18.894-29.036 33.451-57.315 29.571zm-767.9-4.142c-8.113-1.44-8.366-2.353-2.178-7.847 11.68-10.37 14.682-96.164 3.582-102.38-14.317-8.012-10.174-14.701 9.106-14.701 18.545 0 20.213 2.187 39.414 51.687 18.658 48.1 18.85 48.127 34.593 4.795 20.62-56.756 21.067-57.315 44.957-56.205 15.179.705 17.729 2.222 11.854 7.05-10.263 8.435-10.884 11.09-10.781 46.174.114 39.301 4.248 59.077 13.442 64.308 9.663 5.498-4.748 8.983-29.685 7.179-14.986-1.084-17.085-4.035-6.808-9.569 6.619-3.564 8.184-17.001 5.976-51.316-2.956-45.946-3.876-45.753-23.271 4.897-17.551 45.833-21.82 55-25.613 55-2.225 0-12.74-21.91-18.957-39.5-2.336-6.61-16.76-39.905-17.87-41.25-5.911-7.164-9.527 9.14-8.472 38.196.831 22.875 2.962 31.441 8.727 35.081 10.676 6.74-7.19 12.094-28.016 8.397zm596.16.122c-8.107-1.286-8.209-3.474-.365-7.859 7.06-3.947 8.629-15.32 7.877-57.093-.72-39.962-1.708-45.216-9.634-51.232-8.318-6.313-3.746-8.329 18.938-8.348 22.769-.019 27.979 2.475 18.055 8.643-7.657 4.76-8.22 8.049-8.785 51.344-.614 46.991-.061 50.603 8.651 56.541 5.927 4.04 6.268 5.333 1.829 6.937-4.05 1.463-29.403 2.203-36.565 1.067zm-782.43-50.063c-8.305-.952-11.218-1.674-19.628-4.864-7.047-2.673-8.337-5.466-3.15-6.822 1.08-.282 3.072-2.405 4.427-4.718 4.021-6.861 17.798-8.445 74.099-8.521 62.861-.085 77.252 3.541 68.014 17.136-4.611 6.785-87.181 11.982-123.76 7.789zm1078-.064c-13.454-1.425-15.365-2.264-18.26-8.029-7.235-14.404 1.294-16.315 72.962-16.352 68.621-.035 82.012 3.703 66.994 18.699-5.674 5.666-86.294 9.43-121.7 5.681zm51.973-139.45c-61.939-12.326-53.88-52.94 18.728-94.382 27.986-15.973 28.274-17.037 11.518-42.591-11.424-17.422-24.802-46.149-29.131-62.554-7.025-26.618 4.206-59.563 23.945-70.243 43.304-23.428 65.186 11.344 32.719 51.994-16.002 20.036 11.524 89.09 33.134 83.124 14.678-4.053 45.277-27.079 80.824-60.82 24.702-23.448 37.491-28.537 37.491-14.92 0 5.473-6.379 13.562-26.376 33.444-24.794 24.651-41.231 38.017-68.624 55.806-14.249 9.253-14.258 9.273-13.44 30.649 2.099 54.883-49.033 100.79-100.79 90.493zm32.956-24.717c16.43-6.242 32.006-41.765 25.434-58.006-5.372-13.276-66.788 31.372-63.788 46.372 2.522 12.61 21.017 18.22 38.353 11.634zm-1124.3-4.69c-83.52-6.45-134.05-91.35-105.45-177.2 19.673-59.066 58.121-93.621 111.42-100.14 14.546-1.779 24.098-6.045 35.061-15.658 52.209-45.777 119.55-40.595 156.71 12.057 68.715 97.376-33.873 268.17-168.76 280.96-11.94 1.132-14.076 1.131-28.98-.019zm47.033-28.988c88.204-10.095 157.13-136.53 118-216.45-43.968-89.809-152.93-29.795-130.35 71.796 2.123 9.551-3.383 12.156-14.412 6.817-18.277-8.848-23.392-28.378-15.764-60.195 4.084-17.036.847-28.799-7.256-26.363-36.8 11.064-68.689 62.843-68.708 111.56-.019 48.429 36.705 97.382 82.475 109.94 13.18 3.616 22.901 4.397 36.021 2.896zm238.78 26.946c-6.396-.825-13.747-4.977-16.34-9.228-4.041-6.628-5.262.869 27.058-166.17 33.222-171.71 32.332-156.63 9.231-156.32-26.225.357-36.344-5.585-42.577-25-5.395-16.804-4.029-18.06 12.635-11.624 19.887 7.681 43.939 7.516 80.017-.551 18.267-4.084 20.961-4.052 20.242.242-.299 1.788-1.465 8.875-2.59 15.75-7.575 46.278-27.707 151.47-38.02 198.67-9.021 41.285-7.783 42.926 9.51 12.598 39.897-69.971 81.513-106.01 111.87-96.872 22.954 6.908 34.81 24.091 38.711 56.106.603 4.95 1.724 13.5 2.49 19 .766 5.5 1.867 18.325 2.446 28.5 3.382 59.462 7.955 74 23.277 74 28.762 0 119.72-114.84 108.36-136.8-6.318-12.217 9.136-20.98 35.749-20.271 11.983.319 14.167 20.721 8.677 81.076-4.297 47.245-3.415 48.905 11.522 21.687 19.786-36.054 24.122-43.689 30.71-54.075 68.872-108.57 123.21-89.53 131.23 45.993 2.85 48.177 8.492 75.871 16.045 78.77 18.89 7.249 37.944-11.525 89.536-88.221 12.337-18.341 23.375-34.898 24.528-36.794 6.37-10.476 13.83-13.217 20.181-7.416 5.412 4.943 4.086 9.753-8.963 32.51-47.856 83.461-93.516 134.17-127.12 141.18-40.216 8.385-56.413-25.41-59.732-124.63-2.333-69.761-10.574-81.794-37.946-55.407-27.14 26.163-85.191 122.87-98.696 164.41-5.731 17.632-12.59 22.136-27.452 18.029-16.886-4.666-19.313-12.499-15.349-49.537 3.458-32.315 5.992-66.248 5.556-74.424-.118-2.216-4.277 2.109-13.389 13.924-68.711 89.093-105.31 111.2-135.93 82.118-16.045-15.241-20.782-34.693-25.233-103.62-3.913-60.585-11.208-73.434-34.291-60.39-27.093 15.31-103.15 136.02-110.26 174.99-2.6 14.247-10.547 19.753-25.692 17.8zm713.72-255.6c-8.261-3.006-12.53-14.939-15.489-43.296-2.982-28.573-5.024-38.517-10.884-53-4.213-10.412-1.66-12.826 16.492-15.599 33.478-5.114 37.417.493 29.925 42.599-4.944 27.788-8.036 49.921-8.04 57.563-.01 9.738-4.748 14.374-12.004 11.733z" stroke-opacity=".993" stroke="#FFF" fill="#FFF" transform="translate(-1.833 -12.828)"/></svg>